{
  "accessors": [
    {
      "bufferView": 2,
      "componentType": 5126,
      "count": 81,
      "max": [
        1593.7274169921875,
        6.259953022003174,
        515.9771728515625
      ],
      "min": [
        1573.93798828125,
        -28.252439498901367,
        457.9772033691406
      ],
      "type": "VEC3"
    },
    {
      "bufferView": 2,
      "byteOffset": 972,
      "componentType": 5126,
      "count": 81,
      "max": [
        0.9998663663864136,
        0.4649091064929962,
        0.0
      ],
      "min": [
        -0.4226188361644745,
        -0.9996846914291382,
        0.0
      ],
      "type": "VEC3"
    },
    {
      "bufferView": 1,
      "componentType": 5126,
      "count": 81,
      "max": [
        5.479795932769775,
        0.3926990032196045
      ],
      "min": [
        -5.900000095367432,
        -5.900000095367432
      ],
      "type": "VEC2"
    },
    {
      "bufferView": 0,
      "componentType": 5125,
      "count": 234,
      "type": "SCALAR"
    },
    {
      "bufferView": 2,
      "byteOffset": 1944,
      "componentType": 5126,
      "count": 484,
      "max": [
        1546.598388671875,
        25.0,
        534.4771728515625
      ],
      "min": [
        1541.598388671875,
        -25.0,
        -110.5228042602539
      ],
      "type": "VEC3"
    },
    {
      "bufferView": 2,
      "byteOffset": 7752,
      "componentType": 5126,
      "count": 484,
      "max": [
        1.0,
        1.0,
        1.0
      ],
      "min": [
        0.0,
        -1.0,
        -1.0
      ],
      "type": "VEC3"
    },
    {
      "bufferView": 1,
      "byteOffset": 648,
      "componentType": 5126,
      "count": 484,
      "max": [
        2.5,
        9.5
      ],
      "min": [
        -2.799999952316284,
        -9.5
      ],
      "type": "VEC2"
    },
    {
      "bufferView": 0,
      "byteOffset": 936,
      "componentType": 5125,
      "count": 1260,
      "type": "SCALAR"
    },
    {
      "bufferView": 2,
      "byteOffset": 13560,
      "componentType": 5126,
      "count": 5280,
      "max": [
        4185.59814453125,
        87.0,
        -551.5228271484375
      ],
      "min": [
        -100.40167236328125,
        -87.0,
        -568.0228271484375
      ],
      "type": "VEC3"
    },
    {
      "bufferView": 2,
      "byteOffset": 76920,
      "componentType": 5126,
      "count": 5280,
      "max": [
        1.0,
        1.0,
        1.0
      ],
      "min": [
        -1.0,
        -1.0,
        -1.0
      ],
      "type": "VEC3"
    },
    {
      "bufferView": 1,
      "byteOffset": 4520,
      "componentType": 5126,
      "count": 5280,
      "max": [
        1.2000000476837158,
        3.769911050796509
      ],
      "min": [
        -1.5,
        -3.769911050796509
      ],
      "type": "VEC2"
    },
    {
      "bufferView": 0,
      "byteOffset": 5976,
      "componentType": 5125,
      "count": 14784,
      "type": "SCALAR"
    },
    {
      "bufferView": 2,
      "byteOffset": 140280,
      "componentType": 5126,
      "count": 2460,
      "max": [
        4053.598388671875,
        24.999998092651367,
        521.9771728515625
      ],
      "min": [
        31.598329544067383,
        -24.999998092651367,
        -98.0228042602539
      ],
      "type": "VEC3"
    },
    {
      "bufferView": 2,
      "byteOffset": 169800,
      "componentType": 5126,
      "count": 2460,
      "max": [
        0.0,
        1.0,
        1.0
      ],
      "min": [
        0.0,
        -1.0,
        -1.0
      ],
      "type": "VEC3"
    },
    {
      "bufferView": 1,
      "byteOffset": 46760,
      "componentType": 5126,
      "count": 2460,
      "max": [
        70.5,
        2.3062050342559814
      ],
      "min": [
        -70.5,
        -6.283185005187988
      ],
      "type": "VEC2"
    },
    {
      "bufferView": 0,
      "byteOffset": 65112,
      "componentType": 5125,
      "count": 12384,
      "type": "SCALAR"
    },
    {
      "bufferView": 2,
      "byteOffset": 199320,
      "componentType": 5126,
      "count": 42,
      "max": [
        2456.34716796875,
        -8.907449722290039,
        498.4477844238281
      ],
      "min": [
        1615.4954833984375,
        -436.0242004394531,
        -74.49339294433594
      ],
      "type": "VEC3"
    },
    {
      "bufferView": 2,
      "byteOffset": 199824,
      "componentType": 5126,
      "count": 42,
      "max": [
        0.4226188361644745,
        0.9063075184822083,
        0.1764703392982483
      ],
      "min": [
        -0.4226188361644745,
        -0.9063075184822083,
        -0.1764703392982483
      ],
      "type": "VEC3"
    },
    {
      "bufferView": 1,
      "byteOffset": 66440,
      "componentType": 5126,
      "count": 42,
      "max": [
        90.29930877685547,
        2.306195020675659
      ],
      "min": [
        -0.21661700308322906,
        -0.0
      ],
      "type": "VEC2"
    },
    {
      "bufferView": 0,
      "byteOffset": 114648,
      "componentType": 5125,
      "count": 126,
      "type": "SCALAR"
    },
    {
      "bufferView": 2,
      "byteOffset": 200328,
      "componentType": 5126,
      "count": 2992,
      "max": [
        4188.59814453125,
        90.0,
        -568.0228271484375
      ],
      "min": [
        -103.40167236328125,
        -90.0,
        -578.0228271484375
      ],
      "type": "VEC3"
    },
    {
      "bufferView": 2,
      "byteOffset": 236232,
      "componentType": 5126,
      "count": 2992,
      "max": [
        1.0,
        1.0,
        1.0
      ],
      "min": [
        -1.0,
        -1.0,
        -1.0
      ],
      "type": "VEC3"
    },
    {
      "bufferView": 1,
      "byteOffset": 66776,
      "componentType": 5126,
      "count": 2992,
      "max": [
        25.47547721862793,
        17.0
      ],
      "min": [
        -9.0,
        -17.0
      ],
      "type": "VEC2"
    },
    {
      "bufferView": 0,
      "byteOffset": 115152,
      "componentType": 5125,
      "count": 8376,
      "type": "SCALAR"
    },
    {
      "bufferView": 2,
      "byteOffset": 272136,
      "componentType": 5126,
      "count": 28193,
      "max": [
        4155.09814453125,
        56.5,
        578.4771728515625
      ],
      "min": [
        -69.90167236328125,
        -439.91986083984375,
        -568.0228271484375
      ],
      "type": "VEC3"
    },
    {
      "bufferView": 2,
      "byteOffset": 610452,
      "componentType": 5126,
      "count": 28193,
      "max": [
        1.0,
        1.0,
        1.0
      ],
      "min": [
        -1.0,
        -1.0,
        -1.0
      ],
      "type": "VEC3"
    },
    {
      "bufferView": 1,
      "byteOffset": 90712,
      "componentType": 5126,
      "count": 28193,
      "max": [
        116.51863098144531,
        114.0
      ],
      "min": [
        -114.0,
        -249.1282958984375
      ],
      "type": "VEC2"
    },
    {
      "bufferView": 0,
      "byteOffset": 148656,
      "componentType": 5125,
      "count": 89172,
      "type": "SCALAR"
    }
  ],
  "asset": {
    "extras": {
      "author": "Boplan® Group (https://sketchfab.com/boplan)",
      "license": "CC-BY-NC-ND-4.0 (http://creativecommons.org/licenses/by-nc-nd/4.0/)",
      "source": "https://sketchfab.com/3d-models/sg-swing-gate-092c6341f7aa487da3a7014085d09508",
      "title": "SG Swing Gate"
    },
    "generator": "Sketchfab-12.65.0",
    "version": "2.0"
  },
  "bufferViews": [
    {
      "buffer": 0,
      "byteLength": 505344,
      "name": "floatBufferViews",
      "target": 34963
    },
    {
      "buffer": 0,
      "byteLength": 316256,
      "byteOffset": 505344,
      "byteStride": 8,
      "name": "floatBufferViews",
      "target": 34962
    },
    {
      "buffer": 0,
      "byteLength": 948768,
      "byteOffset": 821600,
      "byteStride": 12,
      "name": "floatBufferViews",
      "target": 34962
    }
  ],
  "buffers": [
    {
      "byteLength": 1770368,
      "uri": "scene.bin"
    }
  ],
  "materials": [
    {
      "doubleSided": true,
      "name": "material",
      "pbrMetallicRoughness": {
        "baseColorFactor": [
          0.0,
          0.0,
          0.0,
          1.0
        ],
        "metallicFactor": 0.0,
        "roughnessFactor": 0.4376586748
      }
    },
    {
      "doubleSided": true,
      "name": "191191191",
      "pbrMetallicRoughness": {
        "baseColorFactor": [
          0.74902,
          0.74902,
          0.74902,
          1.0
        ],
        "metallicFactor": 0.0
      }
    },
    {
      "doubleSided": true,
      "name": "224223219",
      "pbrMetallicRoughness": {
        "baseColorFactor": [
          0.878431,
          0.87451,
          0.858824,
          1.0
        ],
        "metallicFactor": 0.0,
        "roughnessFactor": 0.5083949854
      }
    },
    {
      "doubleSided": true,
      "name": "2552550",
      "pbrMetallicRoughness": {
        "baseColorFactor": [
          1.0,
          1.0,
          0.0,
          1.0
        ],
        "metallicFactor": 0.0,
        "roughnessFactor": 0.4376586748
      }
    },
    {
      "doubleSided": true,
      "name": "2552550_1",
      "pbrMetallicRoughness": {
        "baseColorFactor": [
          1.0,
          1.0,
          0.0,
          1.0
        ],
        "metallicFactor": 0.0,
        "roughnessFactor": 0.4376586748
      }
    },
    {
      "doubleSided": true,
      "name": "material_5",
      "pbrMetallicRoughness": {
        "baseColorFactor": [
          0.019608,
          0.019608,
          0.019608,
          1.0
        ],
        "metallicFactor": 0.0,
        "roughnessFactor": 0.4376586748
      }
    },
    {
      "doubleSided": true,
      "name": "767676",
      "pbrMetallicRoughness": {
        "baseColorFactor": [
          0.298039,
          0.298039,
          0.298039,
          1.0
        ],
        "metallicFactor": 0.0,
        "roughnessFactor": 0.8324003538
      }
    }
  ],
  "meshes": [
    {
      "name": "Object_0",
      "primitives": [
        {
          "attributes": {
            "NORMAL": 1,
            "POSITION": 0,
            "TEXCOORD_0": 2
          },
          "indices": 3,
          "material": 0,
          "mode": 4
        }
      ]
    },
    {
      "name": "Object_1",
      "primitives": [
        {
          "attributes": {
            "NORMAL": 5,
            "POSITION": 4,
            "TEXCOORD_0": 6
          },
          "indices": 7,
          "material": 1,
          "mode": 4
        }
      ]
    },
    {
      "name": "Object_2",
      "primitives": [
        {
          "attributes": {
            "NORMAL": 9,
            "POSITION": 8,
            "TEXCOORD_0": 10
          },
          "indices": 11,
          "material": 2,
          "mode": 4
        }
      ]
    },
    {
      "name": "Object_3",
      "primitives": [
        {
          "attributes": {
            "NORMAL": 13,
            "POSITION": 12,
            "TEXCOORD_0": 14
          },
          "indices": 15,
          "material": 3,
          "mode": 4
        }
      ]
    },
    {
      "name": "Object_4",
      "primitives": [
        {
          "attributes": {
            "NORMAL": 17,
            "POSITION": 16,
            "TEXCOORD_0": 18
          },
          "indices": 19,
          "material": 4,
          "mode": 4
        }
      ]
    },
    {
      "name": "Object_5",
      "primitives": [
        {
          "attributes": {
            "NORMAL": 21,
            "POSITION": 20,
            "TEXCOORD_0": 22
          },
          "indices": 23,
          "material": 5,
          "mode": 4
        }
      ]
    },
    {
      "name": "Object_6",
      "primitives": [
        {
          "attributes": {
            "NORMAL": 25,
            "POSITION": 24,
            "TEXCOORD_0": 26
          },
          "indices": 27,
          "material": 6,
          "mode": 4
        }
      ]
    }
  ],
  "nodes": [
    {
      "children": [
        1
      ],
      "matrix": [
        1.0,
        0.0,
        0.0,
        0.0,
        0.0,
        2.220446049250313e-16,
        -1.0,
        0.0,
        0.0,
        1.0,
        2.220446049250313e-16,
        0.0,
        0.0,
        0.0,
        0.0,
        1.0
      ],
      "name": "Sketchfab_model"
    },
    {
      "children": [
        2,
        3,
        4,
        5,
        6,
        7,
        8
      ],
      "name": "SG Swing gate.obj.cleaner.materialmerger.gles"
    },
    {
      "mesh": 0,
      "name": "Object_2"
    },
    {
      "mesh": 1,
      "name": "Object_3"
    },
    {
      "mesh": 2,
      "name": "Object_4"
    },
    {
      "mesh": 3,
      "name": "Object_5"
    },
    {
      "mesh": 4,
      "name": "Object_6"
    },
    {
      "mesh": 5,
      "name": "Object_7"
    },
    {
      "mesh": 6,
      "name": "Object_8"
    }
  ],
  "scene": 0,
  "scenes": [
    {
      "name": "Sketchfab_Scene",
      "nodes": [
        0
      ]
    }
  ]
}
