{
  "accessors": [
    {
      "bufferView": 2,
      "componentType": 5126,
      "count": 1248,
      "max": [
        29.74173355102539,
        39.532257080078125,
        21.37261390686035
      ],
      "min": [
        -26.14933967590332,
        -2.038890838623047,
        -24.618331909179688
      ],
      "type": "VEC3"
    },
    {
      "bufferView": 2,
      "byteOffset": 14976,
      "componentType": 5126,
      "count": 1248,
      "max": [
        0.9531282186508179,
        0.9975637197494507,
        0.9968434572219849
      ],
      "min": [
        -0.8696908354759216,
        -0.3654923737049103,
        -0.9918130040168762
      ],
      "type": "VEC3"
    },
    {
      "bufferView": 1,
      "componentType": 5126,
      "count": 1248,
      "max": [
        1.0,
        1.0
      ],
      "min": [
        0.0,
        0.0
      ],
      "type": "VEC2"
    },
    {
      "bufferView": 1,
      "byteOffset": 9984,
      "componentType": 5126,
      "count": 1248,
      "max": [
        1.0,
        1.0
      ],
      "min": [
        0.0,
        0.0
      ],
      "type": "VEC2"
    },
    {
      "bufferView": 0,
      "componentType": 5125,
      "count": 5940,
      "type": "SCALAR"
    },
    {
      "bufferView": 2,
      "byteOffset": 29952,
      "componentType": 5126,
      "count": 2705,
      "max": [
        19.114925384521484,
        40.397804260253906,
        16.405807495117188
      ],
      "min": [
        -21.60855484008789,
        -0.9700838923454285,
        -16.071651458740234
      ],
      "type": "VEC3"
    },
    {
      "bufferView": 2,
      "byteOffset": 62412,
      "componentType": 5126,
      "count": 2705,
      "max": [
        0.9994489550590515,
        0.9977990984916687,
        0.9988190531730652
      ],
      "min": [
        -0.999873697757721,
        -0.9971920847892761,
        -0.9990106225013733
      ],
      "type": "VEC3"
    },
    {
      "bufferView": 3,
      "componentType": 5126,
      "count": 2705,
      "max": [
        0.9996640086174011,
        0.9990575909614563,
        0.9990651607513428,
        1.0
      ],
      "min": [
        -0.9997780323028564,
        -0.9998053908348083,
        -0.9993066787719727,
        -1.0
      ],
      "type": "VEC4"
    },
    {
      "bufferView": 1,
      "byteOffset": 19968,
      "componentType": 5126,
      "count": 2705,
      "max": [
        0.9843991994857788,
        0.9967594742774963
      ],
      "min": [
        0.009762942790985107,
        0.004544705152511597
      ],
      "type": "VEC2"
    },
    {
      "bufferView": 1,
      "byteOffset": 41608,
      "componentType": 5126,
      "count": 2705,
      "max": [
        0.9843991994857788,
        0.9967594742774963
      ],
      "min": [
        0.009762942790985107,
        0.004544705152511597
      ],
      "type": "VEC2"
    },
    {
      "bufferView": 0,
      "byteOffset": 23760,
      "componentType": 5125,
      "count": 12924,
      "type": "SCALAR"
    }
  ],
  "asset": {
    "extras": {
      "author": "michael_grodkowski (https://sketchfab.com/michael_grodkowski)",
      "license": "CC-BY-4.0 (http://creativecommons.org/licenses/by/4.0/)",
      "source": "https://sketchfab.com/3d-models/a-fantasy-tree-bc7547be2e554125b3917bd2b80b8866",
      "title": "A fantasy tree"
    },
    "generator": "Sketchfab-12.65.0",
    "version": "2.0"
  },
  "bufferViews": [
    {
      "buffer": 0,
      "byteLength": 75456,
      "name": "floatBufferViews",
      "target": 34963
    },
    {
      "buffer": 0,
      "byteLength": 63248,
      "byteOffset": 75456,
      "byteStride": 8,
      "name": "floatBufferViews",
      "target": 34962
    },
    {
      "buffer": 0,
      "byteLength": 94872,
      "byteOffset": 138704,
      "byteStride": 12,
      "name": "floatBufferViews",
      "target": 34962
    },
    {
      "buffer": 0,
      "byteLength": 43280,
      "byteOffset": 233576,
      "byteStride": 16,
      "name": "floatBufferViews",
      "target": 34962
    }
  ],
  "buffers": [
    {
      "byteLength": 276856,
      "uri": "scene.bin"
    }
  ],
  "extensionsUsed": [
    "KHR_materials_clearcoat"
  ],
  "images": [
    {
      "uri": "textures/lambert2_baseColor.png"
    },
    {
      "uri": "textures/lambert1_baseColor.png"
    },
    {
      "uri": "textures/lambert1_metallicRoughness.png"
    },
    {
      "uri": "textures/lambert1_normal.png"
    }
  ],
  "materials": [
    {
      "alphaMode": "BLEND",
      "doubleSided": true,
      "extensions": {
        "KHR_materials_clearcoat": {
          "clearcoatFactor": 0.0321109145188455,
          "clearcoatRoughnessFactor": 0.04
        }
      },
      "name": "lambert2",
      "pbrMetallicRoughness": {
        "baseColorTexture": {
          "index": 0
        },
        "metallicFactor": 0.08075229982549903,
        "roughnessFactor": 0.9137360232019408
      }
    },
    {
      "doubleSided": true,
      "name": "lambert1",
      "normalTexture": {
        "index": 3
      },
      "pbrMetallicRoughness": {
        "baseColorTexture": {
          "index": 1
        },
        "metallicFactor": 0.6401282308520146,
        "metallicRoughnessTexture": {
          "index": 2
        }
      }
    }
  ],
  "meshes": [
    {
      "name": "pPlane156_lambert2_0",
      "primitives": [
        {
          "attributes": {
            "NORMAL": 1,
            "POSITION": 0,
            "TEXCOORD_0": 2,
            "TEXCOORD_1": 3
          },
          "indices": 4,
          "material": 0,
          "mode": 4
        }
      ]
    },
    {
      "name": "pPlane156_lambert1_0",
      "primitives": [
        {
          "attributes": {
            "NORMAL": 6,
            "POSITION": 5,
            "TANGENT": 7,
            "TEXCOORD_0": 8,
            "TEXCOORD_1": 9
          },
          "indices": 10,
          "material": 1,
          "mode": 4
        }
      ]
    }
  ],
  "nodes": [
    {
      "children": [
        1
      ],
      "matrix": [
        1.0,
        0.0,
        0.0,
        0.0,
        0.0,
        2.220446049250313e-16,
        -1.0,
        0.0,
        0.0,
        1.0,
        2.220446049250313e-16,
        0.0,
        0.0,
        0.0,
        0.0,
        1.0
      ],
      "name": "Sketchfab_model"
    },
    {
      "children": [
        2
      ],
      "matrix": [
        1.0,
        0.0,
        0.0,
        0.0,
        0.0,
        0.0,
        1.0,
        0.0,
        0.0,
        -1.0,
        0.0,
        0.0,
        0.0,
        0.0,
        0.0,
        1.0
      ],
      "name": "73f3e5eeec6743ad8c187c6923bc8552.fbx"
    },
    {
      "children": [
        3
      ],
      "name": "RootNode"
    },
    {
      "children": [
        4,
        5
      ],
      "name": "pPlane156"
    },
    {
      "mesh": 0,
      "name": "pPlane156_lambert2_0"
    },
    {
      "mesh": 1,
      "name": "pPlane156_lambert1_0"
    }
  ],
  "samplers": [
    {
      "magFilter": 9729,
      "minFilter": 9987,
      "wrapS": 10497,
      "wrapT": 10497
    }
  ],
  "scene": 0,
  "scenes": [
    {
      "name": "Sketchfab_Scene",
      "nodes": [
        0
      ]
    }
  ],
  "textures": [
    {
      "sampler": 0,
      "source": 0
    },
    {
      "sampler": 0,
      "source": 1
    },
    {
      "sampler": 0,
      "source": 2
    },
    {
      "sampler": 0,
      "source": 3
    }
  ]
}
